<svg xmlns="http://www.w3.org/2000/svg" viewBox="0 0 718 337">
  <g id="areas">
    <rect class="plan-area" id="area-1" x="124" y="8" width="175" height="248" fill="#299ec9"/>
    <polygon class="plan-area" id="area-2" points="431 329 431 256 524 256 524 252 595 252 595 217 710 217 710 73 498 73 498 65 299 65 299 256 226 256 226 329 431 329" fill="#fec593"/>
    <rect class="plan-area" id="area-3" x="299" y="8" width="81" height="57" fill="#00b8b2"/>
    <rect class="plan-area" id="area-4" x="380" y="8" width="74.5" height="57" fill="#ffb033"/>
    <rect class="plan-area" id="area-5" x="431" y="256" width="93" height="73" fill="#b6da3e"/>
    <rect class="plan-area" id="area-6" x="124" y="256" width="102" height="73" fill="#898fda"/>
  </g>
  <g id="markers-areas">
    <g id="marker-area-1">
      <path d="M330.5,254.3a10,10,0,1,1,10-10A10,10,0,0,1,330.5,254.3Z" transform="translate(-119 -112)"/>
      <path d="M330.5,235.3a9,9,0,1,1-9,9,9,9,0,0,1,9-9m0-2a11,11,0,1,0,11,11,11,11,0,0,0-11-11Z" transform="translate(-119 -112)" fill="#fff"/>
      <text transform="translate(209.2 135.9)" font-size="11" fill="#fff" font-family="ProximaNova-Bold, Proxima Nova" font-weight="700">1</text>
    </g>
    <g id="marker-area-2">
      <path d="M625,286.3a10,10,0,1,1,10-10A10,10,0,0,1,625,286.3Z" transform="translate(-119 -112)"/>
      <path d="M625,267.3a9,9,0,1,1-9,9,9,9,0,0,1,9-9m0-2a11,11,0,1,0,11,11,11,11,0,0,0-11-11Z" transform="translate(-119 -112)" fill="#fff"/>
      <text transform="translate(502.7 168)" font-size="11" fill="#fff" font-family="ProximaNova-Bold, Proxima Nova" font-weight="700">2</text>
    </g>
    <g id="marker-area-3">
      <path d="M446,162.5a10,10,0,1,1,10-10A10,10,0,0,1,446,162.5Z" transform="translate(-119 -112)"/>
      <path d="M446,143.5a9,9,0,1,1-9,9,9,9,0,0,1,9-9m0-2a11,11,0,1,0,11,11,11,11,0,0,0-11-11Z" transform="translate(-119 -112)" fill="#fff"/>
      <text transform="translate(323.8 44.1)" font-size="11" fill="#fff" font-family="ProximaNova-Bold, Proxima Nova" font-weight="700">3</text>
    </g>
    <g id="marker-area-4">
      <path d="M545,162.5a10,10,0,1,1,10-10A10,10,0,0,1,545,162.5Z" transform="translate(-119 -112)"/>
      <path d="M545,143.5a9,9,0,1,1-9,9,9,9,0,0,1,9-9m0-2a11,11,0,1,0,11,11,11,11,0,0,0-11-11Z" transform="translate(-119 -112)" fill="#fff"/>
      <text transform="translate(422.7 44.1)" font-size="11" fill="#fff" font-family="ProximaNova-Bold, Proxima Nova" font-weight="700">4</text>
    </g>
    <g id="marker-area-5">
      <path d="M596.5,414.5a10,10,0,1,1,10-10A10,10,0,0,1,596.5,414.5Z" transform="translate(-119 -112)"/>
      <path d="M596.5,395.5a9,9,0,1,1-9,9,9,9,0,0,1,9-9m0-2a11,11,0,1,0,11,11,11,11,0,0,0-11-11Z" transform="translate(-119 -112)" fill="#fff"/>
      <text transform="translate(474.2 296.1)" font-size="11" fill="#fff" font-family="ProximaNova-Bold, Proxima Nova" font-weight="700">5</text>
    </g>
    <g id="marker-area-6">
      <path d="M294,410.8a10,10,0,1,1,10-10A10,10,0,0,1,294,410.8Z" transform="translate(-119 -112)"/>
      <path d="M294,391.8a9,9,0,1,1-9,9,9,9,0,0,1,9-9m0-2a11,11,0,1,0,11,11,11,11,0,0,0-11-11Z" transform="translate(-119 -112)" fill="#fff"/>
      <text transform="translate(171.7 292.4)" font-size="11" fill="#fff" font-family="ProximaNova-Bold, Proxima Nova" font-weight="700">6</text>
    </g>
  </g>
  <g id="frame" fill="none" stroke="#394352">
    <g id="stairwall">
      <rect x="32.2" y="230" width="33" height="84" stroke-miterlimit="10" stroke-width="2"/>
      <line x1="32.2" y1="238.4" x2="65.2" y2="238.4" stroke-miterlimit="10"/>
      <line x1="32.2" y1="246.8" x2="65.2" y2="246.8" stroke-miterlimit="10"/>
      <line x1="32.2" y1="255.2" x2="65.2" y2="255.2" stroke-miterlimit="10"/>
      <line x1="32.2" y1="263.6" x2="65.2" y2="263.6" stroke-miterlimit="10"/>
      <line x1="32.2" y1="272" x2="65.2" y2="272" stroke-miterlimit="10"/>
      <line x1="32.2" y1="280.4" x2="65.2" y2="280.4" stroke-miterlimit="10"/>
      <line x1="32.2" y1="297.2" x2="65.2" y2="297.2" stroke-miterlimit="10"/>
      <line x1="32.2" y1="305.6" x2="65.2" y2="305.6" stroke-miterlimit="10"/>
      <line x1="32.2" y1="288.8" x2="65.2" y2="288.8" stroke-miterlimit="10"/>
      <g>
        <line x1="48.7" y1="230" x2="48.7" y2="311.6" stroke-miterlimit="10" stroke-width="2"/>
        <path d="M158.1,409.9a1,1,0,0,1,1.4.3l8.2,12.9,8.2-12.9a1,1,0,0,1,1.7,1.1l-9.1,14.2a1,1,0,0,1-1.7,0l-9.1-14.2a1,1,0,0,1,.3-1.4Z" transform="translate(-119 -112)" fill="#394352"/>
      </g>
      <rect x="193" y="342" width="33" height="84" transform="translate(300 656) rotate(180)" stroke-miterlimit="10" stroke-width="2"/>
      <line x1="107" y1="305.6" x2="74" y2="305.6" stroke-miterlimit="10"/>
      <line x1="107" y1="297.2" x2="74" y2="297.2" stroke-miterlimit="10"/>
      <line x1="107" y1="288.8" x2="74" y2="288.8" stroke-miterlimit="10"/>
      <line x1="107" y1="280.4" x2="74" y2="280.4" stroke-miterlimit="10"/>
      <line x1="107" y1="272" x2="74" y2="272" stroke-miterlimit="10"/>
      <line x1="107" y1="263.6" x2="74" y2="263.6" stroke-miterlimit="10"/>
      <line x1="107" y1="246.8" x2="74" y2="246.8" stroke-miterlimit="10"/>
      <line x1="107" y1="238.4" x2="74" y2="238.4" stroke-miterlimit="10"/>
      <line x1="107" y1="255.2" x2="74" y2="255.2" stroke-miterlimit="10"/>
      <g>
        <line x1="90.5" y1="314" x2="90.5" y2="232.4" stroke-miterlimit="10" stroke-width="2"/>
        <path d="M219.1,358.1a1,1,0,0,1-1.4-.3l-8.2-12.9-8.2,12.9a1,1,0,0,1-1.7-1.1l9.1-14.2a1,1,0,0,1,1.7,0l9.1,14.2a1,1,0,0,1-.3,1.4Z" transform="translate(-119 -112)" fill="#394352"/>
      </g>
      <rect x="615" y="230" width="33" height="84" stroke-miterlimit="10" stroke-width="2"/>
      <line x1="615" y1="238.4" x2="648" y2="238.4" stroke-miterlimit="10"/>
      <line x1="615" y1="246.8" x2="648" y2="246.8" stroke-miterlimit="10"/>
      <line x1="615" y1="255.2" x2="648" y2="255.2" stroke-miterlimit="10"/>
      <line x1="615" y1="263.6" x2="648" y2="263.6" stroke-miterlimit="10"/>
      <line x1="615" y1="272" x2="648" y2="272" stroke-miterlimit="10"/>
      <line x1="615" y1="280.4" x2="648" y2="280.4" stroke-miterlimit="10"/>
      <line x1="615" y1="297.2" x2="648" y2="297.2" stroke-miterlimit="10"/>
      <line x1="615" y1="305.6" x2="648" y2="305.6" stroke-miterlimit="10"/>
      <line x1="615" y1="288.8" x2="648" y2="288.8" stroke-miterlimit="10"/>
      <g>
        <line x1="631.5" y1="230" x2="631.5" y2="311.6" stroke-miterlimit="10" stroke-width="2"/>
        <path d="M740.9,409.9a1,1,0,0,1,1.4.3l8.2,12.9,8.2-12.9a1,1,0,0,1,1.7,1.1l-9.1,14.2a1,1,0,0,1-1.7,0l-9.1-14.2a1,1,0,0,1,.3-1.4Z" transform="translate(-119 -112)" fill="#394352"/>
      </g>
      <rect x="775.8" y="342" width="33" height="84" transform="translate(1465.7 656) rotate(180)" stroke-miterlimit="10" stroke-width="2"/>
      <line x1="689.8" y1="305.6" x2="656.8" y2="305.6" stroke-miterlimit="10"/>
      <line x1="689.8" y1="297.2" x2="656.8" y2="297.2" stroke-miterlimit="10"/>
      <line x1="689.8" y1="288.8" x2="656.8" y2="288.8" stroke-miterlimit="10"/>
      <line x1="689.8" y1="280.4" x2="656.8" y2="280.4" stroke-miterlimit="10"/>
      <line x1="689.8" y1="272" x2="656.8" y2="272" stroke-miterlimit="10"/>
      <line x1="689.8" y1="263.6" x2="656.8" y2="263.6" stroke-miterlimit="10"/>
      <line x1="689.8" y1="246.8" x2="656.8" y2="246.8" stroke-miterlimit="10"/>
      <line x1="689.8" y1="238.4" x2="656.8" y2="238.4" stroke-miterlimit="10"/>
      <line x1="689.8" y1="255.2" x2="656.8" y2="255.2" stroke-miterlimit="10"/>
      <g>
        <line x1="673.3" y1="314" x2="673.3" y2="232.4" stroke-miterlimit="10" stroke-width="2"/>
        <path d="M801.9,358.1a1,1,0,0,1-1.4-.3l-8.2-12.9-8.2,12.9a1,1,0,1,1-1.7-1.1l9.1-14.2a1,1,0,0,1,1.7,0l9.1,14.2a1,1,0,0,1-.3,1.4Z" transform="translate(-119 -112)" fill="#394352"/>
      </g>
    </g>
    <polygon points="8 174 8 329 710 329 710 73 627 73 627 41 579 41 579 8 124 8 124 174 8 174" stroke-miterlimit="10" stroke-width="16"/>
    <polyline points="299 238 299 256 124 256" stroke-miterlimit="10" stroke-width="4"/>
    <line x1="299" y1="8.5" x2="299" y2="178" stroke-miterlimit="10" stroke-width="4"/>
    <line x1="431" y1="256" x2="524" y2="256" stroke-miterlimit="10" stroke-width="15"/>
    <line x1="226" y1="298" x2="226" y2="329" stroke-miterlimit="10" stroke-width="4"/>
    <line x1="226" y1="256" x2="226" y2="272" stroke-miterlimit="10" stroke-width="4"/>
    <line x1="124" y1="328.5" x2="124" y2="207.5" stroke-miterlimit="10" stroke-width="4"/>
    <line x1="8" y1="217" x2="33" y2="217" stroke-miterlimit="10" stroke-width="4"/>
    <line x1="124" y1="217" x2="99" y2="217" stroke-miterlimit="10" stroke-width="4"/>
    <line x1="710" y1="217" x2="685" y2="217" stroke-miterlimit="10" stroke-width="4"/>
    <line x1="595" y1="217" x2="620" y2="217" stroke-miterlimit="10" stroke-width="4"/>
    <line x1="489" y1="65" x2="498" y2="65" stroke-miterlimit="10" stroke-width="4"/>
    <line x1="441" y1="65" x2="463" y2="65" stroke-miterlimit="10" stroke-width="4"/>
    <line x1="342" y1="65" x2="415" y2="65" stroke-miterlimit="10" stroke-width="4"/>
    <line x1="299" y1="65" x2="316" y2="65" stroke-miterlimit="10" stroke-width="4"/>
    <line x1="565" y1="73" x2="627" y2="73" stroke-miterlimit="10" stroke-width="4"/>
    <polyline points="498 8 498 73 539 73" stroke-miterlimit="10" stroke-width="4"/>
    <line x1="350" y1="65" x2="350" y2="32" stroke-miterlimit="10" stroke-width="4"/>
    <line x1="405" y1="65" x2="405" y2="32" stroke-miterlimit="10" stroke-width="4"/>
    <line x1="453" y1="65" x2="453" y2="8" stroke-miterlimit="10" stroke-width="4"/>
    <line x1="380" y1="65" x2="380" y2="8" stroke-miterlimit="10" stroke-width="4"/>
    <line x1="572" y1="252" x2="595" y2="252" stroke-miterlimit="10" stroke-width="4"/>
    <polyline points="524 329 524 252 546 252" stroke-miterlimit="10" stroke-width="4"/>
    <line x1="595" y1="329" x2="595" y2="208" stroke-miterlimit="10" stroke-width="4"/>
    <g id="doors">
      <g id="door">
        <path d="M436.5,175.5v3h-1v-3h1m.5-.5h-2v4h2v-4Z" transform="translate(-119 -112)" fill="#394352"/>
        <path d="M439,179v21h-2V179h2m.5-.5h-3v22h3v-22Z" transform="translate(-119 -112)" fill="#394352"/>
        <path d="M461,177a23,23,0,0,1-22,23" transform="translate(-119 -112)" stroke-miterlimit="10" stroke-width="0.25"/>
      </g>
      <g id="door-2" data-name="door">
        <path d="M559.5,175.5v3h-1v-3h1m.5-.5h-2v4h2v-4Z" transform="translate(-119 -112)" fill="#394352"/>
        <path d="M558,179v21h-2V179h2m.5-.5h-3v22h3v-22Z" transform="translate(-119 -112)" fill="#394352"/>
        <path d="M534,177a23,23,0,0,0,22,23" transform="translate(-119 -112)" stroke-miterlimit="10" stroke-width="0.25"/>
      </g>
      <g id="door-3" data-name="door">
        <path d="M607.5,175.5v3h-1v-3h1m.5-.5h-2v4h2v-4Z" transform="translate(-119 -112)" fill="#394352"/>
        <path d="M606,179v21h-2V179h2m.5-.5h-3v22h3v-22Z" transform="translate(-119 -112)" fill="#394352"/>
        <path d="M582,177a23,23,0,0,0,22,23" transform="translate(-119 -112)" stroke-miterlimit="10" stroke-width="0.25"/>
      </g>
      <g id="door-4" data-name="door">
        <path d="M683.5,183.5v3h-1v-3h1m.5-.5h-2v4h2v-4Z" transform="translate(-119 -112)" fill="#394352"/>
        <path d="M682,187v21h-2V187h2m.5-.5h-3v22h3v-22Z" transform="translate(-119 -112)" fill="#394352"/>
        <path d="M658,185a23,23,0,0,0,22,23" transform="translate(-119 -112)" stroke-miterlimit="10" stroke-width="0.25"/>
      </g>
      <g id="door-5" data-name="door">
        <path d="M346.5,384.5v1h-3v-1h3m.5-.5h-4v2h4v-2Z" transform="translate(-119 -112)" fill="#394352"/>
        <path d="M368,386v2H347v-2h21m.5-.5h-22v3h22v-3Z" transform="translate(-119 -112)" fill="#394352"/>
        <path d="M345,410a23,23,0,0,0,23-22" transform="translate(-119 -112)" stroke-miterlimit="10" stroke-width="0.25"/>
      </g>
      <g id="door-6" data-name="door">
        <path d="M690.5,362.5v3h-1v-3h1m.5-.5h-2v4h2v-4Z" transform="translate(-119 -112)" fill="#394352"/>
        <path d="M689,341v21h-2V341h2m.5-.5h-3v22h3v-22Z" transform="translate(-119 -112)" fill="#394352"/>
        <path d="M665,364a23,23,0,0,1,22-23" transform="translate(-119 -112)" stroke-miterlimit="10" stroke-width="0.25"/>
      </g>
    </g>
  </g>
</svg>
