<svg xmlns="http://www.w3.org/2000/svg" width="40" height="40">
  <defs>
    <pattern id="diagonalHatch" patternUnits="userSpaceOnUse" width="40" height="40">
<!--       <g fill="#394352">
        <polygon points="0 20 20 0 10 0 0 10"/>
        <polygon points="0 40 40 0 30 0 0 30"/>
        <polygon points="0 60 60 0 50 0 0 50"/>
        <polygon points="0 80 80 0 70 0 0 70"/>
      </g> -->
      <g fill="#394352" fill-rule="evenodd">
          <polygon points="0 5 5 0 10 0 0 10"/>
          <polygon points="0 20 20 0 15 0 0 15"/>
          <polygon points="0 30 30 0 25 0 0 25"/>
          <polygon points="0 40 40 0 35 0 0 35"/>
          <polygon points="0 50 50 0 45 0 0 45"/>
          <polygon points="0 60 60 0 55 0 0 55"/>
          <polygon points="0 70 70 0 65 0 0 65"/>
          <polygon points="0 80 80 0 75 0 0 75"/>
        </g>
    </pattern>
  </defs>
</svg>
