<svg xmlns="http://www.w3.org/2000/svg" viewBox="0 0 600 350">
  <title>plan-draft</title>
  <g id="areas">
    <rect class="plan-area" id="area-1" width="140" height="145" fill="#8cc63f"/>
    <rect class="plan-area" id="area-2" x="140" width="230" height="145" fill="#00a99d"/>
    <rect class="plan-area" id="area-3" x="370" width="230" height="145" fill="#fcee21"/>
    <rect class="plan-area" id="area-4" y="145" width="140" height="205" fill="#a67c52"/>
    <rect class="plan-area" id="area-5" x="140" y="145" width="460" height="205" fill="#94f2ff"/>
  </g>
  <g id="markers-areas">
    <g id="marker-area-1">
      <g>
        <path d="M250,181.6a10,10,0,1,1,10-10A10,10,0,0,1,250,181.6Z" transform="translate(-180 -105)"/>
        <path d="M250,162.6a9,9,0,1,1-9,9,9,9,0,0,1,9-9m0-2a11,11,0,1,0,11,11,11,11,0,0,0-11-11Z" transform="translate(-180 -105)" fill="#fff"/>
      </g>
      <text transform="translate(67.7 70.2)" font-size="11" fill="#fff" font-family="ProximaNova-Bold, Proxima Nova" font-weight="700">1</text>
    </g>
    <g id="marker-area-2">
      <g>
        <path d="M438.7,181.6a10,10,0,1,1,10-10A10,10,0,0,1,438.7,181.6Z" transform="translate(-180 -105)"/>
        <path d="M438.7,162.6a9,9,0,1,1-9,9,9,9,0,0,1,9-9m0-2a11,11,0,1,0,11,11,11,11,0,0,0-11-11Z" transform="translate(-180 -105)" fill="#fff"/>
      </g>
      <text transform="translate(255.4 70.2)" font-size="11" fill="#fff" font-family="ProximaNova-Bold, Proxima Nova" font-weight="700">2</text>
    </g>
    <g id="marker-area-3">
      <g>
        <path d="M676,181.6a10,10,0,1,1,10-10A10,10,0,0,1,676,181.6Z" transform="translate(-180 -105)"/>
        <path d="M676,162.6a9,9,0,1,1-9,9,9,9,0,0,1,9-9m0-2a11,11,0,1,0,11,11,11,11,0,0,0-11-11Z" transform="translate(-180 -105)" fill="#fff"/>
      </g>
      <text transform="translate(492.8 70.2)" font-size="11" fill="#fff" font-family="ProximaNova-Bold, Proxima Nova" font-weight="700">3</text>
    </g>
    <g id="marker-area-4">
      <g>
        <path d="M250,362.5a10,10,0,1,1,10-10A10,10,0,0,1,250,362.5Z" transform="translate(-180 -105)"/>
        <path d="M250,343.5a9,9,0,1,1-9,9,9,9,0,0,1,9-9m0-2a11,11,0,1,0,11,11,11,11,0,0,0-11-11Z" transform="translate(-180 -105)" fill="#fff"/>
      </g>
      <text transform="translate(66.7 251.1)" font-size="11" fill="#fff" font-family="ProximaNova-Bold, Proxima Nova" font-weight="700">4</text>
    </g>
    <g id="marker-area-5">
      <g>
        <path d="M550,362.5a10,10,0,1,1,10-10A10,10,0,0,1,550,362.5Z" transform="translate(-180 -105)"/>
        <path d="M550,343.5a9,9,0,1,1-9,9,9,9,0,0,1,9-9m0-2a11,11,0,1,0,11,11,11,11,0,0,0-11-11Z" transform="translate(-180 -105)" fill="#fff"/>
      </g>
      <text transform="translate(366.7 251.1)" font-size="11" fill="#fff" font-family="ProximaNova-Bold, Proxima Nova" font-weight="700">5</text>
    </g>
  </g>
</svg>
