<svg xmlns="http://www.w3.org/2000/svg" width="50" height="65" viewBox="0 0 370 482.5"><path d="M394.7,241.3c0-102.2-82.8-185-185-185S27.3,136.9,25,237.1h-.2c0,.9.1,1.8.1,2.7s-.1,1-.1,1.5.2,3.6.3,5.4c2.1,120.2,137.9,247,184.7,292.1C341.1,432.4,379.3,333.7,390.3,281c.4-1.8.8-3.7,1.1-5.5,1.1-5.7,1.8-10.8,2.3-15.1v-.2A118.3,118.3,0,0,0,394.7,241.3Z" transform="translate(-24.8 -56.4)" fill="#fcee25"/><path d="M209.9,430.6c-3.4,0-5.7-1.6-8.3-3.5s-10.7-7.8-19.1-15.1a249.4,249.4,0,0,1-26.7-26.8,233.5,233.5,0,0,1-22.3-31.7,240.5,240.5,0,0,1-14.9-30.1,298.5,298.5,0,0,1-11.1-30.8,261.9,261.9,0,0,1-6.5-28.3,216.6,216.6,0,0,1-3.4-28.3c-.6-10.7-.6-23.8-.6-32.4v-.2c0-8.5,0-12.2,0-16a8,8,0,0,1,6.3-7.8c15.3-3.3,31.2-6.7,44.5-9.2a323.1,323.1,0,0,1,36.9-5c7.4-.5,15.1-.8,23-.8,5.6,0,11.3.1,17,.4a354.5,354.5,0,0,1,45,4.9c15.4,2.7,31.1,6.7,38.7,8.6s13.8,3.5,13.8,12.8v15.8c0,6.6,0,13.5-.5,22.4s-1.7,20.7-3,29.7-3,17.2-5.4,26.9a213.7,213.7,0,0,1-6.7,22.6,204.1,204.1,0,0,1-11.7,26.1c-5.3,10.1-12.6,22.5-18.6,31.7a190.2,190.2,0,0,1-15.1,20.4c-4.7,5.5-8.9,10.1-13.8,15s-11.2,10.6-16.5,15.1-11.2,8.7-13.9,10.6S213.2,430.6,209.9,430.6Z" transform="translate(-24.8 -56.4)" fill="#fff" fill-rule="evenodd"/><path d="M207.9,172.6q8.1,0,16.7.4a346.2,346.2,0,0,1,43.9,4.8c15.1,2.7,30.5,6.5,38.2,8.5s7.7,1.9,7.7,5v15.8c0,6.5,0,13.2-.5,21.9s-1.5,19.3-2.9,29-3.3,18.5-5.2,26.2a207.3,207.3,0,0,1-6.4,21.8,194.2,194.2,0,0,1-11.2,25.1c-5.2,10-12.4,22.2-18.2,31.1a182.6,182.6,0,0,1-14.5,19.6c-4.3,5.1-8.5,9.6-13.3,14.5s-10.5,10-16,14.6-10.8,8.4-13.5,10.3-1.9,1.4-2.6,1.4-1.7-.6-3.5-2c-3.5-2.5-10.5-7.6-18.6-14.7A241.2,241.2,0,0,1,162,380a225,225,0,0,1-21.5-30.6A234.4,234.4,0,0,1,126,320.3a289.9,289.9,0,0,1-10.8-29.9A258,258,0,0,1,109,263a209.9,209.9,0,0,1-3.3-27.3c-.6-10.6-.6-23.8-.5-32.2s0-12.2,0-16c15.5-3.3,31.1-6.7,44.3-9.1a315,315,0,0,1,36-4.9c7.1-.5,14.6-.8,22.4-.8m0-16c-8.1,0-16,.3-23.6.8a330.6,330.6,0,0,0-37.8,5.1c-13.4,2.5-29.3,5.9-44.7,9.2a16,16,0,0,0-12.6,15.6c0,3.8,0,7.5,0,16v.2c0,8.7,0,21.9.6,32.9a227.2,227.2,0,0,0,3.5,29.2,269.4,269.4,0,0,0,6.7,29.1,306.7,306.7,0,0,0,11.4,31.6,248.2,248.2,0,0,0,15.4,31,241.6,241.6,0,0,0,23.1,32.8,257.5,257.5,0,0,0,27.5,27.7c8.7,7.5,16.1,12.9,19.6,15.5s6.9,5.1,13,5.1a19.8,19.8,0,0,0,12-4.4c2.7-2,8.4-6.1,14.3-10.9s11.5-10,17.1-15.6,9.5-9.9,14.3-15.5A197.4,197.4,0,0,0,283.3,371c6.1-9.4,13.6-22.1,18.9-32.4a211.9,211.9,0,0,0,12.1-27.1,221.3,221.3,0,0,0,6.9-23.4c2.4-9.9,4.2-18.9,5.5-27.7s2.5-20.4,3.1-30.4.5-16.1.5-22.8V191.4a22.2,22.2,0,0,0-.6-5.8,17.9,17.9,0,0,0-7.6-10.5c-3.2-2.1-6.4-2.9-11.6-4.2-7.7-1.9-23.6-5.9-39.3-8.7a362.5,362.5,0,0,0-46-5.1c-5.9-.3-11.7-.4-17.4-.4Z" transform="translate(-24.8 -56.4)" fill="#231f20"/><path d="M258,283.7c-6.5,14.5,1.3,34.4-4.3,49.4-7.6,20.5-25.9,27.6-46.5,27.5-11-.1-31.1,6.3-35.9-7.8-1.6-4.5.1-11.1.4-16.2.6-12.8,0-25.7,0-38.5,0-23.4-.1-46.7-.5-70.1-.2-10.6-5-26.4,7.4-30.4,10.6-3.4,29.4.7,40.3,1.3C262.5,201.4,254.7,253.6,258,283.7Zm-82.8-6.4c-.8.9-2.3-.8-1.7,1.9C176.1,279.7,174.4,278.3,175.2,277.3Zm7.8-7.2a15.5,15.5,0,0,0-5.4,2.3C180.2,276,182,271.3,183,270.1Zm.7-30.5Zm5,14.6c-1.3-2.4-3.6.7-5,1.2C185.5,257.8,186.6,256.6,188.8,254.3Zm3.1,58.9q-2.5-4.1-5.9-1.4C186.7,312.6,191.9,318.7,191.9,313.1Zm-4.4,12.8c-.7.8-2.1-.7-1.5,1.6C188.2,328.1,186.7,326.8,187.5,325.9Zm.4-31.1c-.1,1.4-1.3,1.6-.4,2.5C189.6,296.1,187.7,296,187.8,294.8ZM191,322q-2.1-2.5-4.1,0C187.6,322.9,190.2,324.1,191,322Zm0,17.9q-1.1-1.9-2.2-1C189.7,342.1,190.1,339.8,191,339.9Zm.6-117.7c-.7.8-2.1-.7-1.5,1.6C192.3,224.3,190.8,223,191.5,222.1Zm1.3,24.3C190.8,244.5,191.3,246,192.8,246.4Zm2.2,87.5c0-1.8-2.5-1.7-3.1-3.1l-.9,2.3A33.6,33.6,0,0,0,195.1,333.9Zm-.9-94.3c.3,1.1-2.3,1.7.9,3.3C196.9,240.9,194.7,241.6,194.1,239.6Zm.4,16.3c-.8.9-2.3-.8-1.7,1.9C195.4,258.3,193.6,256.9,194.5,255.9Zm0,30.5c-.8.8-2.3-.8-1.7,1.6C195.3,288.6,193.7,287.2,194.5,286.4Zm3.7,33.3q-1.8-2.5-3.1,0C196.1,321.6,196.7,320.8,198.2,319.7Zm4.1-65.5c-2.2-2.5-4.4-.9-5.4,1.2C198.4,255.7,201.3,255.6,202.3,254.3Zm-2.2-16.9q-1.5-2.5-3.1,0C198,239.1,198.7,238.7,200.1,237.4Zm-.6,70.4c-.7.8-1.9-.5-1.3,1.6C200.9,310,198.7,308.8,199.5,307.8Zm1.5,28.4c0-3.8-2.3-.5-2.8.4C199.9,339.3,199.6,336.2,201,336.2Zm3-107.9q-2.2-3.9-4.8-2.3C200.5,229.6,201.8,227.5,203.9,228.3Zm-3,37.3c-.5.6-2.6.1-1.4,1.6S200.5,266.2,201,265.6Zm1.7,8.4c-.8.8-2.3-.8-1.7,1.6C203.4,276.3,201.8,274.8,202.6,274Zm.4,55.8q-.8-1.8-2-1C201.9,331.5,202.1,329.7,203,329.8Zm21.3-19.1c-5.4-6.6.2-14.5,0-20.4-.1-3.8-6.3-15,1.1-17.9-5.5-.8-1.9-24.5-2.5-29.4s-2.4-13.5-9-14.7c-11.9-2-9.3,11.8-9.3,19.2s4.1,61.8-3.5,62.9c7.7,3.2.5,30.6,16.3,18.7C222.5,325.4,224.8,314.2,224.3,310.7Zm-14.1-97q-2.7-2.5-4.1,0C207.7,217.1,210.2,213.7,210.2,213.7Zm-.7,10.1a2.3,2.3,0,0,0-2.4,1.2C209.4,225.9,209.3,224,209.5,223.8Zm1.7,112.8a3.1,3.1,0,0,0-3.1-1.2C209.6,338.1,209.9,336.4,211.2,336.6Zm.9,12.4c-1.3-2.9-3.6,0-4.1,1.2S211.9,350.4,212.1,348.9Zm-.9-142Zm7.2,16.9a2.4,2.4,0,0,0-2.2,1.2C218.1,226.8,217.4,225,218.4,223.8Zm-.9,112.8Zm6.3,10.7c-.7.8-2.1-.7-1.5,1.6C224.5,349.5,223,348.2,223.8,347.3Zm4.8-119q-2.2-2.5-4.3,0C225.3,229.8,227.3,230.4,228.6,228.3Zm.9,19.1Zm-.9,30.5c-1.1.9-3.1.2-1.3,2.3A2.4,2.4,0,0,0,228.6,277.9Zm0,52.9Zm2.8-39.3c-.2.3-1.6,1.2-1.9,2.3C231.3,293.6,230.7,292.4,231.4,291.5Zm4.1,25.9c-.8,1.8-4.3.1-5,2.3C232.4,321,233.4,319.4,235.4,317.5Zm1.3,9.5q-1.5-3.1-3.1-.4C234,327.3,236.7,331,236.7,326.9Zm4.1-77c-1.6,1.8-5.1.6-6.3,3.3C236.5,253.4,239,251.6,240.8,249.9Zm-4.1-12.6Zm2.8,25.9c-2.8-2.6-3.6,1.3-1.9,2.3Zm14.3,39.5a2.5,2.5,0,0,0-3.1,1C253.9,306.6,252,304.5,253.8,302.8Zm3.5-13.6c-.7-.8-1.9.5-1.3-1.6C258.7,287,256.4,288.2,257.3,289.2Z" transform="translate(-24.8 -56.4)" fill="#231f20"/></svg>
